<?xml version="1.0" encoding="UTF-8" standalone="no"?>
<svg
   version="1.0"
   width="100"
   height="64"
   viewBox="0 0 74.999998 47.999998"
   preserveAspectRatio="xMidYMid meet"
   id="svg6786"
   sodipodi:docname="truck.svg"
   inkscape:version="1.1.2 (1:1.1+202202050950+0a00cf5339)"
   xmlns:inkscape="http://www.inkscape.org/namespaces/inkscape"
   xmlns:sodipodi="http://sodipodi.sourceforge.net/DTD/sodipodi-0.dtd"
   xmlns="http://www.w3.org/2000/svg"
   xmlns:svg="http://www.w3.org/2000/svg">
  <defs
     id="defs6790" />
  <sodipodi:namedview
     id="namedview6788"
     pagecolor="#505050"
     bordercolor="#eeeeee"
     borderopacity="1"
     inkscape:pageshadow="0"
     inkscape:pageopacity="0"
     inkscape:pagecheckerboard="0"
     inkscape:document-units="pt"
     showgrid="false"
     inkscape:zoom="2.2580461"
     inkscape:cx="77.279203"
     inkscape:cy="55.579026"
     inkscape:window-width="1366"
     inkscape:window-height="713"
     inkscape:window-x="0"
     inkscape:window-y="27"
     inkscape:window-maximized="1"
     inkscape:current-layer="svg6786"
     units="px"
     width="100px" />
  <g
     transform="matrix(0.01401236,0,0,-0.01082206,2.1654432,51.932437)"
     fill="#000000"
     stroke="none"
     id="g6784"
     style="fill:#ffffff">
    <path
       d="M 203,4442 C 103,4407 32,4327 10,4226 2,4190 0,3782 2,2830 l 3,-1345 28,-57 c 32,-64 80,-111 146,-142 41,-18 68,-21 232,-24 l 185,-4 11,-76 c 15,-100 44,-178 98,-258 l 43,-64 H 415 C 177,860 73,857 55,848 -14,817 -16,709 51,674 c 42,-21 4976,-21 5018,0 47,25 63,83 37,135 -23,43 -54,51 -201,51 h -135 l 35,49 c 65,90 114,230 115,331 1,31 6,38 52,65 29,17 67,49 85,73 60,79 64,111 61,483 l -3,334 -285,568 c -304,606 -314,623 -410,670 -44,22 -52,22 -502,25 l -457,3 -3,387 c -3,369 -4,389 -24,433 -31,66 -78,114 -142,146 l -57,28 -1490,2 c -1410,2 -1493,2 -1542,-15 z m 3006,-196 c 15,-8 32,-26 39,-41 9,-20 12,-353 12,-1385 V 1460 l -747,1 h -748 l -34,72 c -47,100 -158,210 -261,261 -177,86 -363,86 -540,0 -103,-51 -214,-161 -261,-261 l -34,-72 H 458 c -117,-1 -186,3 -203,11 -38,17 -55,58 -55,128 v 60 h 160 c 174,0 203,7 226,51 20,40 20,458 0,498 -23,44 -52,51 -226,51 H 200 v 963 c 1,1032 -1,994 51,1023 37,21 2918,20 2958,0 z M 4354,3239 c 15,-12 45,-57 67,-100 l 39,-79 h -359 c -387,0 -401,-2 -427,-51 -19,-37 -21,-853 -2,-894 25,-56 17,-55 658,-55 h 590 v -264 c 0,-252 -1,-265 -21,-287 -11,-13 -22,-19 -25,-13 -24,56 -91,148 -146,199 -184,174 -446,212 -678,99 -103,-51 -214,-161 -261,-261 l -34,-72 h -147 l -148,-1 v 900 900 h 434 c 425,0 434,0 460,-21 z m 356,-679 150,-300 h -500 -500 v 300 300 h 350 350 z M 400,1960 V 1860 H 300 200 v 100 100 h 100 100 z m 964,-338 c 91,-42 149,-100 194,-190 35,-72 37,-81 37,-172 0,-91 -2,-100 -37,-172 -45,-91 -103,-147 -196,-191 -61,-29 -76,-32 -162,-32 -86,0 -101,3 -162,32 -93,44 -151,100 -196,191 -35,72 -37,81 -37,171 0,87 3,102 32,163 40,85 97,147 172,186 78,42 122,52 213,48 61,-3 92,-11 142,-34 z m 3120,0 c 91,-42 149,-100 194,-190 35,-72 37,-81 37,-172 0,-91 -2,-100 -37,-172 -45,-91 -103,-147 -196,-191 -61,-29 -76,-32 -162,-32 -86,0 -101,3 -162,32 -93,44 -151,100 -196,191 -35,72 -37,81 -37,171 0,87 3,102 32,163 40,85 97,147 172,186 78,42 122,52 213,48 61,-3 92,-11 142,-34 z m -757,-440 c 15,-100 44,-177 98,-258 l 43,-64 H 2760 1652 l 43,64 c 54,81 83,158 98,258 l 11,78 h 956 956 z"
       id="path6772"
       style="fill:#ffffff" />
    <path
       d="m 1051,3846 c -87,-48 -50,-186 49,-186 51,0 100,49 100,99 0,75 -83,124 -149,87 z"
       id="path6774"
       style="fill:#ffffff" />
    <path
       d="m 1451,3846 c -67,-37 -65,-143 4,-174 37,-17 1313,-17 1350,0 29,13 55,55 55,88 0,33 -26,75 -55,88 -40,18 -1321,16 -1354,-2 z"
       id="path6776"
       style="fill:#ffffff" />
    <path
       d="m 1851,3446 c -67,-37 -65,-143 4,-174 19,-9 148,-12 475,-12 482,0 490,1 516,51 27,52 8,115 -41,137 -39,18 -921,16 -954,-2 z"
       id="path6778"
       style="fill:#ffffff" />
    <path
       d="m 1132,1449 c -48,-14 -109,-80 -123,-131 -23,-89 12,-182 88,-229 57,-36 154,-34 210,3 62,41 88,90 88,168 0,77 -26,127 -85,166 -43,29 -125,39 -178,23 z"
       id="path6780"
       style="fill:#ffffff" />
    <path
       d="m 4252,1449 c -48,-14 -109,-80 -123,-131 -23,-89 12,-182 88,-229 30,-19 52,-24 105,-24 58,0 72,4 109,30 58,41 84,94 84,170 0,72 -27,123 -85,161 -43,29 -125,39 -178,23 z"
       id="path6782"
       style="fill:#ffffff" />
  </g>
  <path
     style="fill:#008080;stroke:none;stroke-width:0.442861"
     d="M 7.3957747,47.51896 C 7.1034866,47.226672 6.8643418,46.62881 6.8643418,46.190377 c 0,-0.696433 0.4176803,-0.797149 3.3058742,-0.797149 3.934868,0 4.222759,-0.301925 4.222759,-4.428608 0,-4.12793 -0.287124,-4.428607 -4.22898,-4.428607 H 6.8519 L 6.9688361,22.475184 7.0857722,8.4143545 21.035886,8.1775312 c 7.672563,-0.1302529 20.327309,-0.1302529 28.121658,0 l 14.171545,0.2368233 0.115277,19.8180195 0.115272,19.818019 H 49.878958 36.198277 l -1.106461,-1.450645 c -2.851925,-3.739068 -9.550404,-5.342718 -14.50371,-3.472264 -2.248708,0.849152 -5.752271,3.608597 -5.752271,4.530554 0,0.606809 -6.8216924,0.479289 -7.4400603,-0.139078 z M 56.052696,21.663055 c 0.422436,-0.509005 0.454442,-0.903824 0.116672,-1.439297 -0.410705,-0.651103 -1.579578,-0.737885 -9.938684,-0.737885 h -9.473241 l -0.149462,1.057069 c -0.0822,0.581388 0.117083,1.22602 0.442861,1.432516 0.325778,0.206496 4.60349,0.378499 9.506027,0.382229 7.598253,0.0058 8.99961,-0.09673 9.495827,-0.694632 z M 25.016952,15.948627 c 0.639023,-0.769975 0.31411,-1.907572 -0.650556,-2.277749 -1.129538,-0.433445 -2.887649,0.227036 -2.887649,1.084823 0,1.717136 2.424687,2.534634 3.538205,1.192926 z m 31.035744,-0.04276 c 0.422436,-0.509006 0.454442,-0.903825 0.116672,-1.439298 -0.417423,-0.661754 -1.83057,-0.737883 -13.696936,-0.737883 -12.383994,0 -13.241314,0.051 -13.384842,0.796281 -0.385198,2.000176 0.15317,2.082314 13.648473,2.082314 11.078836,0 12.810195,-0.09119 13.316633,-0.701414 z"
     id="path6944"
     transform="scale(0.75)" />
  <path
     style="fill:#008080;stroke:none;stroke-width:0.442861"
     d="m 75.064899,32.328836 v -4.207178 h 6.431432 6.431432 l 2.343938,3.653602 c 1.289167,2.00948 2.492174,3.90271 2.67335,4.207177 0.259204,0.435591 -1.611099,0.553576 -8.77537,0.553576 h -9.104782 z"
     id="path7020"
     transform="scale(0.75)" />
  <path
     style="fill:#008080;stroke:none;stroke-width:0.442861"
     d="M 67.536266,35.207431 V 22.364468 h 8.115727 c 7.910669,0 8.140057,0.0259 9.078646,1.02498 0.529605,0.563739 0.962918,1.161601 0.962918,1.328582 0,0.166982 -3.049096,0.303603 -6.775769,0.303603 -4.679563,0 -6.940179,0.164408 -7.307203,0.531433 -0.740549,0.740549 -0.740549,12.81099 0,13.551539 0.38533,0.38533 3.611776,0.531433 11.73581,0.531433 h 11.204378 v 3.764317 c 0,2.070374 -0.160194,3.764316 -0.355987,3.764316 -0.195792,0 -1.032504,-0.697989 -1.859359,-1.551087 -0.826855,-0.853098 -2.609713,-1.968833 -3.961906,-2.47941 -4.933955,-1.863023 -11.648867,-0.30076 -14.440875,3.35975 -1.120498,1.469049 -1.333464,1.556469 -3.791778,1.556469 h -2.604602 z"
     id="path7096"
     transform="scale(0.75)" />
  <path
     style="fill:#008080;stroke:none;stroke-width:0.442861"
     d="m 6.8643418,40.96462 c 0,-1.223139 0.1230169,-1.328582 1.5500127,-1.328582 1.4269957,0 1.5500126,0.105443 1.5500126,1.328582 0,1.22314 -0.1230169,1.328583 -1.5500126,1.328583 -1.4269958,0 -1.5500127,-0.105443 -1.5500127,-1.328583 z"
     id="path7172"
     transform="scale(0.75)" />
</svg>
