<?xml version="1.0" standalone="no"?>
<!DOCTYPE svg PUBLIC "-//W3C//DTD SVG 20010904//EN"
 "http://www.w3.org/TR/2001/REC-SVG-20010904/DTD/svg10.dtd">
<svg version="1.0" xmlns="http://www.w3.org/2000/svg"
 width="512.000000pt" height="512.000000pt" viewBox="0 0 512.000000 512.000000"
 preserveAspectRatio="xMidYMid meet">

<g transform="translate(0.000000,512.000000) scale(0.100000,-0.100000)"
fill="#000000" stroke="none">
<path d="M1025 5110 c-259 -41 -495 -160 -677 -342 -353 -353 -447 -900 -232
-1353 76 -161 218 -336 364 -446 83 -64 274 -159 379 -189 l81 -24 0 -518 0
-519 -37 -57 c-61 -96 -83 -152 -83 -212 0 -69 33 -143 83 -187 l37 -32 0
-531 0 -530 -230 0 -231 0 -24 -25 c-34 -33 -34 -87 0 -120 l24 -25 2291 0
2292 0 29 29 c42 43 34 106 -18 130 -16 7 -161 11 -458 11 l-435 0 0 530 0
531 37 32 c50 44 83 118 83 187 0 60 -22 116 -83 212 l-37 57 0 519 0 519 78
22 c172 50 353 154 486 281 335 318 457 793 317 1231 -116 360 -406 650 -768
768 -127 41 -220 55 -368 55 -206 0 -369 -39 -547 -130 -328 -170 -569 -496
-629 -854 -7 -41 -14 -77 -15 -79 -2 -2 -15 6 -31 16 -82 58 -204 58 -286 0
-16 -10 -29 -18 -31 -16 -1 2 -8 38 -16 79 -53 315 -245 609 -513 787 -196
131 -390 192 -627 198 -80 2 -172 0 -205 -5z m311 -171 c382 -53 715 -333 832
-699 37 -115 46 -182 47 -320 l0 -135 -210 -340 c-115 -187 -221 -351 -235
-364 -42 -39 -219 -119 -325 -148 -87 -23 -119 -26 -250 -26 -130 0 -163 3
-250 26 -292 78 -533 272 -663 532 -192 387 -129 841 161 1151 95 101 184 170
291 222 194 96 397 130 602 101z m2834 -20 c194 -50 352 -142 491 -286 133
-138 215 -286 261 -470 31 -124 32 -351 1 -473 -47 -185 -132 -340 -262 -474
-91 -93 -168 -150 -276 -204 -162 -80 -282 -107 -470 -106 -117 1 -156 6 -240
28 -106 28 -283 108 -325 147 -14 13 -120 177 -235 364 l-210 340 0 130 c0
194 32 328 119 491 149 280 418 474 734 530 109 19 303 11 412 -17z m-1556
-1001 c41 -38 1510 -2428 1514 -2465 3 -24 -2 -38 -22 -57 l-25 -26 -1521 0
-1521 0 -24 25 c-15 14 -25 36 -25 53 0 21 209 367 746 1238 410 665 757 1219
770 1232 14 12 38 22 54 22 16 0 40 -10 54 -22z m-1014 -1123 c0 -8 -141 -235
-146 -235 -2 0 -4 44 -4 99 l0 98 68 21 c76 23 82 24 82 17z m2014 -21 c26 -7
50 -15 52 -17 3 -2 3 -49 2 -103 l-3 -99 -72 118 c-40 64 -73 120 -73 123 0 3
10 2 23 -2 12 -4 44 -13 71 -20z m-2334 -274 l0 -229 -85 -137 -85 -138 0 367
0 367 85 0 85 0 0 -230z m2730 -137 l0 -367 -85 138 -85 137 0 229 0 230 85 0
85 0 0 -367z m-2730 -1683 l0 -510 -85 0 -85 0 0 510 0 510 85 0 85 0 0 -510z
m1020 0 l0 -510 -425 0 -425 0 0 510 0 510 425 0 425 0 0 -510z m348 3 l-3
-508 -85 0 -85 0 -3 508 -2 507 90 0 90 0 -2 -507z m1022 -3 l0 -510 -425 0
-425 0 0 510 0 510 425 0 425 0 0 -510z m340 0 l0 -510 -85 0 -85 0 0 510 0
510 85 0 85 0 0 -510z"/>
<path d="M522 4163 c-18 -9 -45 -32 -60 -51 -27 -35 -27 -38 -27 -186 0 -142
1 -153 23 -184 13 -18 41 -41 62 -52 38 -19 61 -20 672 -20 596 0 635 2 674
19 23 10 52 34 65 52 23 32 24 42 24 184 0 141 -1 152 -23 183 -13 18 -41 41
-62 52 -38 19 -61 20 -677 20 -570 0 -642 -2 -671 -17z m1268 -238 l0 -85
-595 0 -595 0 0 85 0 85 595 0 595 0 0 -85z"/>
<path d="M3407 4430 c-136 -35 -247 -164 -247 -289 0 -104 147 -117 166 -14
16 91 74 136 174 136 63 0 106 -19 144 -63 65 -78 1 -168 -135 -189 -64 -10
-93 -38 -93 -87 0 -50 35 -79 103 -87 124 -15 188 -111 125 -187 -38 -45 -78
-62 -145 -62 -45 0 -69 6 -103 26 -43 25 -59 50 -71 112 -7 39 -31 62 -71 70
-24 4 -37 0 -63 -22 -31 -26 -33 -31 -29 -79 9 -105 82 -205 187 -253 49 -23
69 -27 151 -26 114 0 164 19 239 89 97 91 125 227 67 332 -16 29 -37 60 -47
69 -18 16 -18 18 7 47 40 47 65 105 71 161 11 109 -78 248 -189 296 -59 25
-180 35 -241 20z"/>
<path d="M4234 4430 c-111 -22 -215 -103 -266 -208 l-33 -67 0 -230 c0 -228 0
-230 27 -287 139 -296 550 -296 695 1 l28 56 0 230 c0 228 0 230 -27 287 -51
109 -156 192 -276 217 -59 12 -88 12 -148 1z m181 -193 c21 -12 53 -42 70 -65
l30 -44 0 -202 0 -202 -27 -42 c-93 -140 -309 -123 -373 30 -11 29 -15 77 -15
213 0 136 4 184 15 213 49 116 186 161 300 99z"/>
<path d="M2509 3597 c-9 -7 -284 -444 -610 -972 -456 -738 -594 -969 -597
-998 -3 -30 1 -44 19 -63 l22 -24 1217 0 1217 0 22 24 c18 19 22 33 19 63 -3
29 -141 260 -597 998 -326 528 -601 965 -610 972 -9 7 -32 12 -51 12 -19 0
-42 -5 -51 -12z m566 -1060 c278 -451 505 -821 505 -823 0 -2 -459 -4 -1021
-4 -561 0 -1019 4 -1017 8 12 32 1014 1642 1020 1640 4 -2 235 -371 513 -821z"/>
<path d="M2518 2975 c-42 -23 -48 -66 -48 -330 0 -277 6 -310 56 -331 29 -12
39 -12 68 0 50 21 56 54 56 331 0 267 -6 307 -50 330 -36 18 -47 18 -82 0z"/>
<path d="M2499 2104 c-21 -22 -24 -35 -24 -101 0 -70 2 -76 28 -99 16 -13 41
-24 57 -24 16 0 41 11 57 24 26 23 28 29 28 99 0 66 -3 79 -24 101 -18 19 -35
26 -61 26 -26 0 -43 -7 -61 -26z"/>
<path d="M44 158 c-24 -11 -44 -48 -44 -79 0 -11 13 -34 29 -50 27 -27 35 -29
100 -29 58 0 74 4 96 23 39 33 39 91 1 123 -23 20 -37 24 -94 23 -37 0 -77 -5
-88 -11z"/>
</g>
</svg>
