<?xml version="1.0" standalone="no"?>
<!DOCTYPE svg PUBLIC "-//W3C//DTD SVG 20010904//EN"
 "http://www.w3.org/TR/2001/REC-SVG-20010904/DTD/svg10.dtd">
<svg version="1.0" xmlns="http://www.w3.org/2000/svg"
 width="512.000000pt" height="512.000000pt" viewBox="0 0 512.000000 512.000000"
 preserveAspectRatio="xMidYMid meet">

<g transform="translate(0.000000,512.000000) scale(0.100000,-0.100000)"
fill="#000000" stroke="none">
<path d="M505 5061 c-56 -34 -65 -58 -65 -182 0 -123 12 -154 71 -184 l29 -16
0 -298 0 -298 -237 -183 c-131 -101 -250 -194 -265 -208 -35 -32 -45 -80 -25
-118 24 -47 137 -188 160 -201 55 -31 78 -20 255 119 l62 50 0 -1219 0 -1220
-49 -32 c-28 -17 -69 -53 -92 -79 -39 -43 -99 -152 -99 -178 0 -6 -14 -17 -30
-24 -83 -34 -160 -154 -160 -247 0 -35 -7 -64 -20 -85 -17 -29 -20 -51 -20
-178 0 -126 3 -149 20 -177 41 -68 -171 -63 2458 -63 l2379 0 21 23 c29 31 28
72 -3 102 -23 24 -30 25 -145 25 l-120 0 0 720 c0 396 1 720 3 720 2 0 52 -38
112 -84 59 -46 119 -86 133 -89 51 -10 82 12 158 115 86 116 95 139 68 184
-12 20 -311 258 -804 640 -432 334 -802 618 -823 632 -48 32 -128 40 -177 19
-19 -8 -91 -58 -160 -111 l-125 -97 -5 120 c-6 136 -17 161 -77 161 -62 0 -67
-17 -73 -223 l-5 -182 -584 -452 c-321 -248 -598 -465 -615 -482 -24 -24 -31
-40 -31 -70 0 -33 12 -53 75 -136 78 -101 113 -127 161 -118 14 3 360 263 768
579 l742 574 552 -428 552 -428 3 -782 2 -782 -299 0 -298 0 -5 87 c-4 74 -8
89 -27 105 -30 24 -76 23 -101 -2 -17 -17 -20 -33 -20 -105 l0 -85 -355 0
-355 0 0 575 0 575 353 -2 352 -3 5 -348 c5 -330 6 -349 24 -363 48 -34 109
-5 121 58 3 18 5 187 3 375 -3 327 -4 343 -24 370 -46 63 -49 63 -482 63 -426
0 -438 -1 -480 -55 l-22 -28 0 -608 0 -609 -284 0 -284 0 -3 118 c-3 93 -8
124 -22 145 -28 43 -75 67 -131 67 l-49 0 7 48 c15 120 -41 278 -132 369 -182
182 -468 190 -651 18 -46 -43 -47 -44 -91 -34 -25 6 -66 7 -91 4 -46 -6 -46
-6 -84 43 -85 112 -227 182 -370 182 l-45 0 0 1253 0 1253 547 424 c302 232
554 423 561 424 7 1 260 -190 562 -424 l550 -425 0 -142 c0 -130 2 -145 20
-163 33 -33 75 -30 108 6 19 22 22 36 22 104 l0 80 116 -90 c163 -127 176
-125 300 42 56 74 69 98 69 128 0 21 -7 45 -14 54 -19 23 -1616 1258 -1649
1275 -40 21 -133 18 -173 -6 -19 -10 -126 -91 -239 -178 -113 -87 -211 -163
-217 -168 -10 -7 -13 1 -13 37 0 39 4 48 23 55 37 15 66 49 78 94 16 61 7 195
-16 235 -36 60 -48 62 -412 62 -302 0 -330 -2 -358 -19z m645 -181 l0 -50
-280 0 -280 0 0 50 0 50 280 0 280 0 0 -50z m712 -138 c466 -356 1453 -1126
1455 -1135 2 -7 -10 -26 -25 -44 l-27 -32 -735 569 c-404 314 -745 573 -757
576 -13 3 -33 4 -45 0 -13 -3 -320 -236 -683 -517 -363 -281 -695 -538 -737
-570 l-77 -59 -30 39 -31 39 767 593 c733 568 799 618 815 619 4 0 54 -35 110
-78z m-822 -167 l0 -104 -167 -131 c-93 -71 -171 -130 -175 -130 -5 0 -8 106
-8 235 l0 235 175 0 175 0 0 -105z m2502 -1783 c702 -542 1366 -1057 1382
-1072 19 -19 19 -19 -5 -54 -13 -20 -27 -36 -31 -36 -3 0 -338 257 -743 570
-406 314 -747 573 -760 576 -13 3 -33 0 -45 -6 -12 -7 -350 -266 -751 -576
-401 -310 -733 -564 -737 -564 -4 1 -19 17 -34 37 l-27 36 22 17 c1007 781
1543 1190 1557 1190 10 0 88 -53 172 -118z m-2724 -1822 c58 -25 129 -95 161
-159 29 -56 57 -66 128 -45 91 26 178 -3 230 -79 23 -33 28 -51 28 -101 l0
-61 -87 -5 c-66 -4 -91 -9 -107 -24 -25 -22 -28 -73 -7 -102 14 -18 34 -19
498 -24 l483 -5 3 -87 3 -88 -991 0 -990 0 0 90 0 90 360 0 c347 0 361 1 380
20 30 30 27 83 -6 109 -26 20 -38 21 -360 21 l-334 0 0 27 c0 40 46 92 105
118 53 24 55 26 85 120 55 172 249 258 418 185z m952 -72 c128 -59 203 -194
184 -330 l-6 -48 -213 0 -212 0 -5 73 c-5 80 -30 147 -78 207 l-31 39 47 32
c26 17 65 38 88 45 62 21 161 13 226 -18z"/>
<path d="M1309 3943 c-15 -9 -35 -30 -45 -47 -18 -29 -19 -63 -19 -681 0 -724
-4 -681 68 -725 30 -19 53 -20 430 -20 435 0 445 1 486 58 21 30 21 31 21 687
0 590 -2 660 -16 685 -36 61 -32 60 -486 60 -364 -1 -416 -2 -439 -17z m361
-288 l0 -155 -135 0 -135 0 0 155 0 155 135 0 135 0 0 -155z m430 0 l0 -156
-137 3 -138 3 -3 153 -3 152 141 0 140 0 0 -155z m-430 -440 l0 -135 -135 0
-135 0 0 135 0 135 135 0 135 0 0 -135z m430 0 l0 -135 -140 0 -140 0 0 135 0
135 140 0 140 0 0 -135z m-430 -440 l0 -155 -135 0 -135 0 0 155 0 155 135 0
135 0 0 -155z m430 0 l0 -156 -137 3 -138 3 -3 140 c-1 76 0 145 2 152 4 10
39 13 141 13 l135 0 0 -155z"/>
<path d="M3105 958 c-40 -21 -45 -38 -45 -154 0 -97 3 -115 21 -138 28 -36 80
-36 108 0 18 23 21 40 21 138 -1 115 -6 133 -47 154 -26 14 -32 14 -58 0z"/>
</g>
</svg>
