<?xml version="1.0" standalone="no"?>
<!DOCTYPE svg PUBLIC "-//W3C//DTD SVG 20010904//EN"
 "http://www.w3.org/TR/2001/REC-SVG-20010904/DTD/svg10.dtd">
<svg version="1.0" xmlns="http://www.w3.org/2000/svg"
 width="512.000000pt" height="512.000000pt" viewBox="0 0 512.000000 512.000000"
 preserveAspectRatio="xMidYMid meet">

<g transform="translate(0.000000,512.000000) scale(0.100000,-0.100000)"
fill="#000000" stroke="none">
<path d="M2461 4784 c-88 -23 -151 -64 -242 -154 -236 -235 -461 -724 -640
-1389 -27 -102 -49 -191 -49 -198 0 -32 -19 -7 -54 72 -84 186 -188 320 -289
372 -72 36 -162 38 -232 4 -148 -73 -287 -300 -411 -676 -119 -361 -224 -882
-224 -1114 0 -125 41 -270 111 -388 48 -81 171 -202 255 -252 63 -37 171 -79
247 -95 l27 -6 0 -215 0 -215 -267 -1 c-308 0 -328 -4 -357 -63 -17 -36 -18
-43 -5 -80 10 -30 24 -46 49 -58 33 -17 158 -18 2181 -18 1505 0 2155 3 2177
11 41 14 62 49 62 102 0 52 -31 91 -81 101 -18 3 -148 6 -290 6 l-259 0 2 216
3 216 72 19 c260 65 475 283 540 544 53 218 -31 762 -199 1275 -160 491 -325
714 -528 714 -163 0 -298 -141 -431 -449 l-21 -50 -48 185 c-173 662 -417
1199 -650 1430 -149 148 -291 197 -449 154z m194 -227 c92 -46 224 -205 322
-387 208 -386 414 -1058 512 -1675 67 -422 33 -665 -129 -906 -62 -93 -202
-225 -298 -283 -88 -53 -242 -110 -334 -124 l-58 -9 0 136 0 135 160 161 c153
154 160 163 160 201 0 48 -22 82 -65 100 -52 21 -90 4 -177 -83 l-78 -78 0
170 0 169 160 161 c155 156 160 163 160 202 0 76 -69 128 -136 103 -16 -6 -64
-46 -106 -88 l-78 -77 0 202 c0 111 -4 213 -10 227 -26 68 -122 83 -172 26
l-28 -30 0 -212 0 -213 -77 77 c-43 42 -91 82 -107 88 -67 25 -136 -27 -136
-103 0 -39 5 -46 160 -202 l160 -161 0 -169 0 -170 -78 78 c-79 78 -117 99
-166 90 -41 -8 -76 -57 -76 -106 0 -40 5 -46 160 -203 l161 -161 -3 -134 -3
-134 -30 3 c-62 6 -191 44 -262 77 -146 67 -303 199 -392 329 -52 75 -117 223
-142 321 -50 195 -18 533 97 1040 155 680 410 1296 628 1518 120 122 198 146
301 94z m-1505 -1314 c69 -76 165 -272 233 -480 l53 -161 -18 -124 c-28 -193
-33 -413 -14 -533 21 -123 65 -257 117 -353 21 -41 39 -81 39 -89 0 -30 -64
-128 -123 -185 -57 -56 -162 -116 -229 -132 l-28 -6 0 197 c0 109 -5 216 -10
238 -19 85 -108 113 -172 56 l-33 -29 -3 -232 -3 -232 -27 7 c-77 18 -177 77
-242 144 -143 145 -176 290 -135 586 69 503 246 1075 399 1289 83 116 119 123
196 39z m2989 1 c119 -130 239 -428 341 -849 56 -228 101 -499 107 -646 5
-110 3 -135 -15 -195 -29 -94 -81 -179 -149 -242 -55 -51 -167 -114 -225 -128
l-28 -6 0 211 c0 227 -6 263 -51 295 -30 20 -88 21 -117 0 -47 -33 -52 -58
-52 -290 l0 -216 -27 6 c-16 4 -61 23 -102 43 -89 43 -182 132 -227 217 l-32
59 48 96 c83 167 130 358 130 531 0 77 -21 299 -39 409 -10 60 -8 67 38 209
86 260 169 426 252 510 59 59 83 57 148 -14z m-2240 -2083 c139 -95 323 -168
483 -193 l78 -11 0 -214 0 -213 -640 0 -640 0 0 215 0 214 43 11 c192 48 339
143 443 285 l47 64 64 -59 c34 -32 89 -77 122 -99z m1556 103 c49 -71 145
-159 226 -206 57 -34 167 -76 242 -92 l27 -6 0 -215 0 -215 -640 0 -640 0 0
214 0 214 55 7 c219 27 511 169 654 319 19 20 36 36 36 36 1 0 19 -25 40 -56z"/>
</g>
</svg>
