<?xml version="1.0" standalone="no"?>
<!DOCTYPE svg PUBLIC "-//W3C//DTD SVG 20010904//EN"
 "http://www.w3.org/TR/2001/REC-SVG-20010904/DTD/svg10.dtd">
<svg version="1.0" xmlns="http://www.w3.org/2000/svg"
 width="512.000000pt" height="512.000000pt" viewBox="0 0 512.000000 512.000000"
 preserveAspectRatio="xMidYMid meet">

<g transform="translate(0.000000,512.000000) scale(0.100000,-0.100000)"
fill="#000000" stroke="none">
<path d="M2010 5110 c-99 -27 -220 -122 -290 -227 -50 -74 -55 -79 -109 -94
-252 -72 -436 -287 -470 -552 -8 -55 -14 -72 -33 -85 -40 -27 -103 -99 -131
-149 -86 -159 -71 -353 39 -500 19 -24 24 -44 24 -86 l0 -55 -46 -22 c-59 -29
-155 -118 -189 -176 -33 -56 -65 -148 -65 -185 0 -20 -15 -45 -50 -84 -71 -79
-92 -125 -98 -217 -5 -86 12 -156 54 -217 16 -25 24 -50 24 -81 0 -107 53
-243 127 -330 57 -67 173 -138 254 -155 19 -4 63 -25 98 -46 69 -42 159 -74
234 -85 41 -5 52 -12 71 -43 182 -287 247 -374 388 -515 l99 -99 -16 -186
c-26 -291 -55 -512 -96 -719 l-10 -52 -47 0 c-26 0 -55 -6 -64 -14 -39 -30
-40 -92 0 -122 13 -11 130 -13 570 -14 l553 0 24 25 c14 13 25 36 25 50 0 38
-42 75 -83 75 -34 0 -35 1 -76 100 -119 286 -172 574 -204 1111 l-5 67 152
148 c83 82 183 180 222 217 l71 69 103 -18 c131 -21 326 -15 445 16 89 23 204
74 268 119 23 16 71 37 107 46 284 71 508 333 527 616 5 69 3 79 -16 98 -27
27 -81 28 -105 2 -10 -11 -21 -49 -27 -87 -14 -105 -45 -185 -100 -263 -82
-117 -194 -191 -342 -225 -45 -11 -81 -27 -114 -52 -61 -47 -147 -86 -243
-110 -101 -26 -343 -26 -444 -1 -84 21 -176 64 -237 110 -30 24 -71 41 -129
56 -101 27 -178 66 -248 127 -47 41 -52 49 -52 87 0 28 8 54 24 78 43 62 59
131 53 218 -6 93 -29 143 -98 216 -32 33 -49 61 -49 77 0 64 -58 196 -112 255
-20 21 -20 24 -5 47 9 14 34 37 54 52 86 63 93 73 93 133 1 137 52 255 154
357 79 78 144 115 253 140 37 8 73 20 79 25 7 5 25 36 40 67 38 75 134 171
207 206 32 16 90 33 132 39 197 29 372 -64 472 -248 l38 -70 60 -13 c120 -27
204 -73 287 -156 81 -81 138 -221 138 -341 0 -62 -2 -59 108 -153 67 -56 94
-114 102 -219 5 -59 12 -89 25 -103 25 -28 78 -26 106 3 19 20 20 31 17 118
-3 87 -7 103 -41 171 -33 68 -107 155 -152 180 -9 5 -15 23 -15 42 0 50 -35
175 -69 247 -76 161 -233 291 -414 344 -51 15 -60 21 -79 58 -32 65 -163 189
-237 226 -73 37 -195 71 -256 71 -35 0 -44 4 -53 25 -57 125 -227 262 -379
307 -71 21 -74 23 -109 82 -55 89 -139 165 -234 214 -94 48 -121 51 -155 17
-49 -48 -29 -94 61 -136 89 -42 173 -122 218 -209 41 -77 50 -84 116 -95 68
-11 138 -42 205 -90 55 -39 125 -113 125 -132 0 -4 -34 -23 -75 -42 -92 -41
-196 -133 -254 -225 -35 -56 -44 -64 -78 -69 -53 -9 -166 -66 -241 -121 -127
-94 -225 -269 -248 -445 -6 -50 -12 -59 -74 -120 l-67 -66 -62 20 c-37 12 -63
27 -67 38 -9 29 -112 134 -157 160 -159 92 -348 82 -490 -27 -42 -32 -48 -34
-54 -19 -3 10 -22 35 -41 57 -54 61 -76 119 -76 206 -1 118 37 186 150 270
l51 39 7 82 c4 45 16 110 27 145 50 161 205 302 371 334 84 17 96 25 125 87
39 81 128 173 207 212 75 36 89 52 89 91 0 51 -43 84 -93 70z m-380 -1662 c57
-24 105 -70 136 -130 25 -49 57 -78 86 -78 37 0 128 -42 170 -79 58 -52 95
-121 108 -206 16 -107 16 -109 64 -142 54 -39 86 -96 86 -157 0 -55 -12 -88
-49 -135 -25 -32 -29 -46 -33 -126 -3 -75 -9 -102 -35 -155 -50 -108 -139
-180 -251 -206 -30 -7 -75 -27 -99 -44 -91 -66 -242 -97 -383 -79 -95 11 -161
35 -230 83 -27 19 -69 37 -92 41 -164 28 -288 188 -288 372 0 60 -4 71 -40
125 -34 51 -40 68 -40 113 0 72 21 117 77 162 62 49 60 45 68 122 11 111 69
211 152 262 19 12 67 32 106 44 67 20 73 24 100 71 89 153 236 207 387 142z
m709 -1709 c44 -36 64 -26 199 99 70 66 133 126 140 134 11 14 19 12 67 -16
l53 -31 -219 -221 -220 -221 6 -104 c31 -537 86 -855 199 -1143 l34 -86 -313
0 -312 0 19 103 c38 207 98 739 98 871 l0 49 -119 116 c-115 113 -205 224
-310 386 l-52 80 27 7 c16 4 29 6 30 5 1 -1 22 -29 46 -62 104 -141 275 -295
327 -295 38 0 69 26 75 63 3 18 10 137 17 265 l11 234 56 56 c31 32 68 79 82
105 l25 47 5 -211 c5 -207 5 -211 29 -230z m169 318 l22 -13 -35 -34 -35 -34
0 47 c0 50 8 56 48 34z m-526 -289 c-2 -71 -8 -128 -13 -128 -8 0 -149 163
-149 172 0 17 146 90 166 83 1 0 -1 -57 -4 -127z"/>
<path d="M2926 3739 c-47 -41 -98 -146 -104 -212 -4 -49 -7 -54 -49 -82 -59
-40 -107 -100 -144 -180 -54 -115 -49 -266 12 -386 25 -50 99 -131 144 -159
28 -18 33 -26 38 -76 11 -107 85 -217 147 -217 63 0 93 71 51 124 -39 51 -51
88 -51 157 0 76 -2 80 -80 124 -56 32 -91 70 -122 128 -32 61 -33 184 -2 251
27 58 81 112 143 144 57 28 61 37 61 118 0 66 11 93 68 167 37 50 39 68 11
104 -29 37 -77 36 -123 -5z"/>
</g>
</svg>
