<?xml version="1.0" standalone="no"?>
<!DOCTYPE svg PUBLIC "-//W3C//DTD SVG 20010904//EN"
 "http://www.w3.org/TR/2001/REC-SVG-20010904/DTD/svg10.dtd">
<svg version="1.0" xmlns="http://www.w3.org/2000/svg"
 width="512.000000pt" height="512.000000pt" viewBox="0 0 512.000000 512.000000"
 preserveAspectRatio="xMidYMid meet">

<g transform="translate(0.000000,512.000000) scale(0.100000,-0.100000)"
fill="#000000" stroke="none">
<path d="M2497 5098 c-12 -13 -277 -321 -590 -684 -519 -606 -567 -665 -567
-697 0 -23 8 -46 24 -64 l24 -28 231 -3 230 -3 -417 -487 c-230 -268 -425
-498 -435 -512 -26 -37 -22 -77 12 -111 l29 -29 336 0 c185 0 336 -3 336 -6 0
-9 -118 -146 -628 -726 -254 -290 -467 -539 -472 -553 -12 -32 9 -88 38 -104
14 -8 258 -11 791 -11 l771 0 0 -417 c0 -230 4 -444 9 -475 13 -77 51 -131
114 -163 48 -24 59 -25 220 -25 105 0 185 5 211 12 53 16 121 84 135 134 7 25
11 200 11 487 l0 447 778 0 779 0 21 23 c31 33 35 67 14 102 -11 17 -217 260
-458 540 -242 281 -485 564 -541 630 l-102 120 339 5 c336 5 340 5 362 28 16
15 23 34 23 60 0 35 -14 54 -150 212 -83 95 -277 320 -431 499 l-282 326 222
5 c148 3 228 9 242 17 32 18 46 67 31 103 -14 34 -1140 1346 -1167 1360 -31
17 -70 11 -93 -12z m528 -743 l458 -530 -224 -5 c-149 -3 -231 -9 -245 -17
-27 -15 -48 -66 -41 -95 4 -13 200 -248 438 -523 l431 -500 -340 -5 -340 -5
-26 -24 c-19 -18 -26 -35 -26 -61 0 -41 31 -79 757 -920 l349 -405 -724 -5
-724 -5 -24 -28 -24 -28 0 -498 c0 -373 -3 -500 -12 -509 -17 -17 -299 -17
-316 0 -9 9 -12 136 -12 509 l0 498 -24 28 -24 28 -721 5 -720 5 177 206 c97
113 339 394 538 625 198 230 368 431 378 446 25 38 18 86 -17 112 -27 20 -43
21 -363 26 l-334 5 207 240 c114 132 305 354 425 492 120 139 223 264 229 277
16 34 4 72 -28 93 -23 15 -59 19 -249 23 l-223 5 166 190 c91 105 298 349 460
543 163 194 299 349 303 345 4 -4 214 -246 465 -538z"/>
</g>
</svg>
