<?xml version="1.0" standalone="no"?>
<!DOCTYPE svg PUBLIC "-//W3C//DTD SVG 20010904//EN"
 "http://www.w3.org/TR/2001/REC-SVG-20010904/DTD/svg10.dtd">
<svg version="1.0" xmlns="http://www.w3.org/2000/svg"
 width="512.000000pt" height="512.000000pt" viewBox="0 0 512.000000 512.000000"
 preserveAspectRatio="xMidYMid meet">

<g transform="translate(0.000000,512.000000) scale(0.100000,-0.100000)"
fill="#000000" stroke="none">
<path d="M2825 5104 c-156 -35 -266 -95 -384 -212 l-85 -83 -100 26 c-81 22
-132 28 -258 32 -224 8 -386 -24 -573 -113 -78 -36 -183 -102 -214 -133 -27
-27 -27 -75 -1 -101 32 -32 74 -25 149 24 184 121 367 176 591 176 130 0 247
-19 350 -56 112 -40 112 -40 200 74 70 91 188 171 308 208 76 24 206 28 292
10 97 -20 221 -82 288 -143 30 -26 79 -86 111 -133 l57 -85 150 -2 c239 -4
387 -45 556 -155 195 -127 332 -316 404 -558 16 -54 19 -96 19 -245 l0 -180
-43 -122 c-23 -67 -42 -126 -42 -130 0 -5 30 -54 66 -108 161 -241 234 -478
234 -760 0 -225 -40 -394 -140 -592 -190 -377 -540 -638 -983 -735 -88 -19
-132 -22 -322 -22 -201 0 -231 2 -345 26 -106 23 -295 79 -304 90 -2 2 -6 48
-9 103 l-6 100 90 110 c49 61 92 120 95 133 14 51 -37 101 -90 88 -30 -7 -246
-271 -246 -301 0 -11 14 -263 30 -559 17 -296 30 -559 30 -582 l0 -44 -170 0
-171 0 7 113 c22 399 60 1254 56 1266 -3 8 -133 176 -289 375 l-284 361 -87
37 c-48 21 -96 42 -107 47 -14 7 21 10 111 10 l130 1 210 -237 c115 -131 223
-253 240 -270 37 -38 79 -43 115 -14 l24 19 0 529 0 528 -93 185 -93 185 143
-148 c161 -166 154 -163 262 -122 37 14 71 25 76 25 6 0 -33 -56 -85 -125
l-95 -125 0 -550 c0 -537 0 -550 20 -570 12 -12 33 -20 54 -20 38 0 51 14 270
273 l108 127 225 0 225 0 64 62 c35 33 64 59 64 56 0 -3 -25 -57 -55 -121
l-55 -116 -204 -3 c-184 -3 -206 -5 -225 -22 -27 -25 -29 -86 -3 -109 16 -15
50 -17 264 -17 241 0 245 0 265 22 29 34 353 720 353 749 0 34 -39 69 -76 69
-25 0 -61 -32 -239 -210 l-210 -210 -223 0 c-123 0 -231 -4 -240 -9 -10 -5
-65 -66 -122 -134 l-105 -125 -3 404 -2 405 170 221 c184 240 192 257 145 303
-13 14 -31 25 -39 25 -9 0 -99 -31 -200 -69 l-184 -69 -204 206 c-112 114
-245 249 -295 301 -78 81 -95 94 -123 94 -36 0 -80 -39 -80 -71 0 -9 90 -199
200 -421 l200 -403 0 -379 c0 -209 -3 -379 -7 -379 -5 0 -84 88 -178 194 -93
107 -180 199 -193 205 -15 7 -141 11 -380 11 -393 0 -394 0 -407 -60 -13 -58
4 -69 300 -190 l276 -114 261 -330 260 -331 -7 -195 c-5 -128 -11 -198 -19
-203 -18 -13 -235 0 -301 18 -80 21 -247 103 -315 154 -30 23 -82 68 -115 100
-83 81 -87 82 -191 70 -165 -19 -359 15 -520 90 -115 54 -196 112 -290 205
-129 130 -203 254 -261 442 -25 83 -27 102 -27 269 -1 158 2 189 22 259 52
181 144 341 266 462 83 83 162 138 285 199 57 28 92 52 96 65 4 11 1 71 -6
133 -22 206 13 386 116 592 36 72 65 135 65 141 0 6 -9 23 -21 38 -28 36 -81
36 -114 0 -34 -37 -118 -212 -148 -309 -39 -126 -51 -219 -51 -376 l0 -146
-63 -32 c-244 -127 -455 -379 -547 -656 -78 -233 -75 -539 9 -760 67 -180 144
-296 285 -435 156 -154 320 -248 524 -300 105 -27 266 -43 353 -35 l73 7 63
-54 c234 -204 462 -298 724 -298 l94 0 -6 -72 c-3 -40 -10 -174 -15 -298 -6
-124 -13 -267 -16 -317 l-6 -93 -425 0 -424 0 -24 -25 c-14 -13 -25 -36 -25
-50 0 -14 11 -37 25 -50 l24 -25 1209 0 c1167 0 1211 1 1233 19 17 13 23 29
23 56 0 27 -6 43 -23 56 -22 18 -49 19 -485 19 l-462 0 -21 388 c-12 213 -19
389 -17 391 2 2 45 -8 96 -23 178 -50 284 -67 474 -73 205 -7 322 4 483 43
620 152 1071 631 1168 1238 19 125 13 402 -12 516 -39 179 -129 394 -223 532
l-38 58 24 72 c13 39 30 105 38 147 19 97 19 303 0 402 -52 270 -202 516 -411
674 -200 150 -420 225 -661 226 l-112 0 -53 72 c-99 131 -259 241 -414 282
-89 23 -265 28 -350 9z"/>
<path d="M3671 4301 c-26 -26 -27 -71 -3 -101 14 -18 33 -24 97 -30 153 -16
283 -87 370 -202 64 -85 94 -160 107 -267 13 -101 26 -121 79 -121 29 0 42 6
59 27 19 25 21 35 15 92 -18 170 -82 308 -195 421 -125 125 -261 188 -421 198
-78 4 -88 3 -108 -17z"/>
</g>
</svg>
