<?xml version="1.0" standalone="no"?>
<!DOCTYPE svg PUBLIC "-//W3C//DTD SVG 20010904//EN"
 "http://www.w3.org/TR/2001/REC-SVG-20010904/DTD/svg10.dtd">
<svg version="1.0" xmlns="http://www.w3.org/2000/svg"
 width="512.000000pt" height="512.000000pt" viewBox="0 0 512.000000 512.000000"
 preserveAspectRatio="xMidYMid meet">

<g transform="translate(0.000000,512.000000) scale(0.100000,-0.100000)"
fill="#000000" stroke="none">
<path d="M203 4442 c-100 -35 -171 -115 -193 -216 -8 -36 -10 -444 -8 -1396
l3 -1345 28 -57 c32 -64 80 -111 146 -142 41 -18 68 -21 232 -24 l185 -4 11
-76 c15 -100 44 -178 98 -258 l43 -64 -333 0 c-238 0 -342 -3 -360 -12 -69
-31 -71 -139 -4 -174 42 -21 4976 -21 5018 0 47 25 63 83 37 135 -23 43 -54
51 -201 51 l-135 0 35 49 c65 90 114 230 115 331 1 31 6 38 52 65 29 17 67 49
85 73 60 79 64 111 61 483 l-3 334 -285 568 c-304 606 -314 623 -410 670 -44
22 -52 22 -502 25 l-457 3 -3 387 c-3 369 -4 389 -24 433 -31 66 -78 114 -142
146 l-57 28 -1490 2 c-1410 2 -1493 2 -1542 -15z m3006 -196 c15 -8 32 -26 39
-41 9 -20 12 -353 12 -1385 l0 -1360 -747 1 -748 0 -34 72 c-47 100 -158 210
-261 261 -177 86 -363 86 -540 0 -103 -51 -214 -161 -261 -261 l-34 -72 -177
0 c-117 -1 -186 3 -203 11 -38 17 -55 58 -55 128 l0 60 160 0 c174 0 203 7
226 51 20 40 20 458 0 498 -23 44 -52 51 -226 51 l-160 0 0 963 c1 1032 -1
994 51 1023 37 21 2918 20 2958 0z m1145 -1007 c15 -12 45 -57 67 -100 l39
-79 -359 0 c-387 0 -401 -2 -427 -51 -19 -37 -21 -853 -2 -894 25 -56 17 -55
658 -55 l590 0 0 -264 c0 -252 -1 -265 -21 -287 -11 -13 -22 -19 -25 -13 -24
56 -91 148 -146 199 -184 174 -446 212 -678 99 -103 -51 -214 -161 -261 -261
l-34 -72 -147 0 -148 -1 0 900 0 900 434 0 c425 0 434 0 460 -21z m356 -679
l150 -300 -500 0 -500 0 0 300 0 300 350 0 350 0 150 -300z m-4310 -600 l0
-100 -100 0 -100 0 0 100 0 100 100 0 100 0 0 -100z m964 -338 c91 -42 149
-100 194 -190 35 -72 37 -81 37 -172 0 -91 -2 -100 -37 -172 -45 -91 -103
-147 -196 -191 -61 -29 -76 -32 -162 -32 -86 0 -101 3 -162 32 -93 44 -151
100 -196 191 -35 72 -37 81 -37 171 0 87 3 102 32 163 40 85 97 147 172 186
78 42 122 52 213 48 61 -3 92 -11 142 -34z m3120 0 c91 -42 149 -100 194 -190
35 -72 37 -81 37 -172 0 -91 -2 -100 -37 -172 -45 -91 -103 -147 -196 -191
-61 -29 -76 -32 -162 -32 -86 0 -101 3 -162 32 -93 44 -151 100 -196 191 -35
72 -37 81 -37 171 0 87 3 102 32 163 40 85 97 147 172 186 78 42 122 52 213
48 61 -3 92 -11 142 -34z m-757 -440 c15 -100 44 -177 98 -258 l43 -64 -1108
0 -1108 0 43 64 c54 81 83 158 98 258 l11 78 956 0 956 0 11 -78z"/>
<path d="M1051 3846 c-87 -48 -50 -186 49 -186 51 0 100 49 100 99 0 75 -83
124 -149 87z"/>
<path d="M1451 3846 c-67 -37 -65 -143 4 -174 37 -17 1313 -17 1350 0 29 13
55 55 55 88 0 33 -26 75 -55 88 -40 18 -1321 16 -1354 -2z"/>
<path d="M1851 3446 c-67 -37 -65 -143 4 -174 19 -9 148 -12 475 -12 482 0
490 1 516 51 27 52 8 115 -41 137 -39 18 -921 16 -954 -2z"/>
<path d="M1132 1449 c-48 -14 -109 -80 -123 -131 -23 -89 12 -182 88 -229 57
-36 154 -34 210 3 62 41 88 90 88 168 0 77 -26 127 -85 166 -43 29 -125 39
-178 23z"/>
<path d="M4252 1449 c-48 -14 -109 -80 -123 -131 -23 -89 12 -182 88 -229 30
-19 52 -24 105 -24 58 0 72 4 109 30 58 41 84 94 84 170 0 72 -27 123 -85 161
-43 29 -125 39 -178 23z"/>
</g>
</svg>
